<svg xmlns="http://www.w3.org/2000/svg" width="600" height="600" viewBox="0 0 600 600">
  <g id="Group_1" data-name="Group 1" transform="translate(-20 -20)">
    <g id="Bacground">
      <circle id="Outter" cx="300" cy="300" r="300" transform="translate(20 20)" fill="#435466"/>
      <circle id="Inner_dark" data-name="Inner dark" cx="269.5" cy="269.5" r="269.5" transform="translate(51 51)" fill="#2e845e"/>
      <path id="Inner_light" data-name="Inner light" d="M106.614,416.633l-102.2,6.475L99.537,154.754,0,157.619,54.141,0,54.2.032c148.816.029,269.451,120.678,269.451,269.5,0,148.777-120.551,269.4-269.3,269.5l-.287.147Z" transform="translate(266.349 50.968)" fill="#42b884"/>
    </g>
    <path id="Lightning" d="M23.594,422.985,49.439,211.763H0L49.439,0H225.644L165.867,112.01h76.7Zm51.4-391.3h0L43.6,176.206H87.79l-12.8,114.76L181.458,145.358H112.51L173.12,31.681H74.992Z" transform="translate(197.882 111.968)" fill="#fff"/>
  </g>
</svg>
