<svg xmlns="http://www.w3.org/2000/svg" xmlns:xlink="http://www.w3.org/1999/xlink" width="300" height="200" viewBox="0 0 300 200">
  <defs>
    <ellipse id="desertsmall-a" cx="12.5" cy="12.559" rx="12.5" ry="12.559"/>
  </defs>
  <g fill="none" fill-rule="evenodd">
    <rect width="300" height="200" fill="none"/>
    <g stroke="#C2E8FF" stroke-linecap="round" stroke-width="3" transform="translate(123 105.749)">
      <path d="M22,8.79146919 L31.5,8.79146919 C31.1394857,6.06480614 32.0407715,3.78378292 34.2038574,1.94839955 C36.6877441,-0.0982417247 39.6367188,0.360587604 41.220459,1.06679965 C42.8041992,1.7730117 43.9803467,2.74328671 44.7956543,4.5741966 C45.1411133,5.34508018 45.3758952,5.99728321 45.5,6.53080569"/>
      <path d="M41.5 10.2985782C42.0279134 8.46301559 43.1113688 7.26289664 44.7503662 6.69822136 47.2088623 5.85120844 49.5400391 6.97920986 50.4711914 8.11420227 51.4023438 9.24919468 51.6975098 10.1609662 51.873291 11.1124759 51.9904785 11.7468158 52.0327148 12.4802559 52 13.3127962L54.081543 13.3127962C56.0183919 13.8295019 56.9937337 14.9811653 57.0075684 16.7677864 57.0322678 19.9575033 54.6954577 20.7511848 53.5 20.7511848L14 20.7511848M9 14.7511848L41.5002493 14.7511848M0 14.7511848L4 14.7511848"/>
    </g>
    <g stroke="#C2E8FF" stroke-linecap="round" stroke-width="3" transform="translate(74 78.749)">
      <path d="M22,8.79146919 L31.5,8.79146919 C31.1394857,6.06480614 32.0407715,3.78378292 34.2038574,1.94839955 C36.6877441,-0.0982417247 39.6367188,0.360587604 41.220459,1.06679965 C42.8041992,1.7730117 43.9803467,2.74328671 44.7956543,4.5741966 C45.1411133,5.34508018 45.3758952,5.99728321 45.5,6.53080569"/>
      <path d="M41.5 10.2985782C42.0279134 8.46301559 43.1113688 7.26289664 44.7503662 6.69822136 47.2088623 5.85120844 49.5400391 6.97920986 50.4711914 8.11420227 51.4023438 9.24919468 51.6975098 10.1609662 51.873291 11.1124759 51.9904785 11.7468158 52.0327148 12.4802559 52 13.3127962L54.081543 13.3127962C56.0183919 13.8295019 56.9937337 14.9811653 57.0075684 16.7677864 57.0322678 19.9575033 54.6954577 20.7511848 53.5 20.7511848L14 20.7511848M9 14.7511848L41.5002493 14.7511848M0 14.7511848L4 14.7511848"/>
    </g>
    <g stroke="#C2E8FF" stroke-linecap="round" stroke-width="3" transform="translate(34 133.882)">
      <path d="M8 18.6184834L233 18.6184834M0 18.6184834L3 18.6184834"/>
      <polyline stroke-linejoin="round" points="118.25 18.085 140.5 0 157.5 13.062"/>
      <path stroke-linejoin="round" d="M140.5.502369668L140.5 17.5829384M157.75 5.52606635C157.75 10.4210503 157.75 12.9328986 157.75 13.0616114 157.75 12.9328986 157.75 10.4210503 157.75 5.52606635z"/>
      <polyline stroke-linejoin="round" points="152.75 8.54 157.75 4.521 174.75 18.085"/>
    </g>
    <g transform="translate(57 93)">
      <g fill="#C2E8FF" transform="translate(14 5)">
        <path d="M15.5,30.5 L15.5,6 C15.5,2.6862915 18.1862915,4.4408921e-16 21.5,0 C24.8137085,-4.4408921e-16 27.5,2.6862915 27.5,6 L27.5,21.5 L35.5,21.5 L35.5,14.7630332 C35.5,12.5538942 37.290861,10.7630332 39.5,10.7630332 C41.709139,10.7630332 43.5,12.5538942 43.5,14.7630332 L43.5,26.5 C43.5,28.1568542 42.1568542,29.5 40.5,29.5 L27.5,29.5 L27.5,59.5 C27.5,60.0522847 27.0522847,60.5 26.5,60.5 L16.5,60.5 C15.9477153,60.5 15.5,60.0522847 15.5,59.5 L15.5,38.5 L3.5,38.5 C1.84314575,38.5 0.5,37.1568542 0.5,35.5 L0.5,20.7914692 C0.5,18.5823302 2.290861,16.7914692 4.5,16.7914692 C6.709139,16.7914692 8.5,18.5823302 8.5,20.7914692 L8.5,30.5 L15.5,30.5 Z"/>
        <path d="M24.5,41.5 L32.5,41.5 L32.5,37.3720379 L32.5,37.3720379 C32.5,35.4390413 34.0670034,33.8720379 36,33.8720379 L36,33.8720379 L36,33.8720379 C37.9329966,33.8720379 39.5,35.4390413 39.5,37.3720379 L39.5,45.5 L39.5,45.5 C39.5,47.1568542 38.1568542,48.5 36.5,48.5 L24.5,48.5"/>
      </g>
      <g stroke="#8CD3F8" stroke-width="3">
        <path stroke-linecap="round" d="M0 65.5L178 65.5M183.25 65.5L188.026243 65.5M39 46.4960938L44 46.4960938M39 53.4960938L44 53.4960938"/>
        <path d="M41.5,46.5 L41.5,34.5 L54.5,34.5 C56.1568542,34.5 57.5,33.1568542 57.5,31.5 L57.5,19.7630332 C57.5,17.5538942 55.709139,15.7630332 53.5,15.7630332 C51.290861,15.7630332 49.5,17.5538942 49.5,19.7630332 L49.5,26.5 L41.5,26.5 L41.5,11 C41.5,7.6862915 38.8137085,5 35.5,5 C32.1862915,5 29.5,7.6862915 29.5,11 L29.5,35.5 L22.5,35.5 L22.5,25.7914692 C22.5,23.5823302 20.709139,21.7914692 18.5,21.7914692 C16.290861,21.7914692 14.5,23.5823302 14.5,25.7914692 L14.5,40.5 C14.5,42.1568542 15.8431458,43.5 17.5,43.5 L29.5,43.5 L29.5,64.5 C29.5,65.0522847 29.9477153,65.5 30.5,65.5 L40.5,65.5 C41.0522847,65.5 41.5,65.0522847 41.5,64.5 L41.5,53.5 L50.5,53.5 C52.1568542,53.5 53.5,52.1568542 53.5,50.5 L53.5,42.3720379 C53.5,40.4390413 51.9329966,38.8720379 50,38.8720379 C48.0670034,38.8720379 46.5,40.4390413 46.5,42.3720379 L46.5,46.5 L41.5,46.5 Z"/>
        <path stroke-linecap="round" d="M39.5,5.55273247 L42.3284271,2.71090047"/>
        <path stroke-linecap="round" d="M28.5,5.55273247 L31.3284271,2.71090047" transform="matrix(-1 0 0 1 59.828 0)"/>
        <path stroke-linecap="round" d="M35.5.199052133L35.5 4.21800948M53.5 11.7440758L53.5 15.7630332M56.5 16.0977562L59.3284271 13.2559242M18.5 17.7725118L18.5 21.7914692M22 23.1261922L24.8284271 20.2843602"/>
        <path stroke-linecap="round" d="M12.5,23.1261922 L15.3284271,20.2843602" transform="matrix(-1 0 0 1 27.828 0)"/>
      </g>
    </g>
    <g stroke="#C2E8FF" stroke-linecap="round" stroke-width="3" transform="translate(215 126.848)">
      <path d="M6.5,2.00947867 L6.5,25.1184834"/>
      <polyline stroke-linejoin="round" points="5.5 9.652 .5 9.652 .5 .152"/>
      <polyline stroke-linejoin="round" points="7 12.652 12.5 12.652 12.5 4.152"/>
      <polyline stroke-linejoin="round" points="1.5 15.652 1.5 19.652 5.5 19.652"/>
    </g>
    <g transform="translate(164 53)">
      <g stroke="#C2E8FF" stroke-linecap="round" stroke-linejoin="round" stroke-width="3">
        <ellipse cx="31.78" cy="31.767" stroke-dasharray="67.5 .5 .5 9" rx="22.5" ry="22.607" transform="rotate(-130 31.78 31.767)"/>
        <ellipse cx="31.579" cy="31.607" stroke-dasharray="53.5 5" rx="16.5" ry="16.578" transform="rotate(150 31.579 31.607)"/>
      </g>
      <g transform="translate(19 19)">
        <use fill="#C2E8FF" xlink:href="#desertsmall-a"/>
        <ellipse cx="12.5" cy="12.559" stroke="#8CD3F8" stroke-width="3" rx="11" ry="11.059"/>
      </g>
    </g>
  </g>
</svg>
