<?xml version="1.0" encoding="iso-8859-1"?>
<!-- Generator: Adobe Illustrator 19.0.0, SVG Export Plug-In . SVG Version: 6.00 Build 0)  -->
<svg version="1.1" id="Layer_1" xmlns="http://www.w3.org/2000/svg" xmlns:xlink="http://www.w3.org/1999/xlink" x="0px" y="0px"
	 viewBox="0 0 511.999 511.999" style="enable-background:new 0 0 511.999 511.999;" xml:space="preserve">
<g>
	<path style="fill:#91AAC4;" d="M79.674,309.504l5.949,71.829c0.173,2.097,1.931,3.71,4.04,3.71h64.212
		c2.554,0,4.656-2.003,4.773-4.548l0.186-4.067c0.178-3.869-1.454-7.602-4.417-10.105l-9.531-8.053
		c-3.497-2.955-5.097-7.579-4.172-12.056l9.564-46.313L79.674,309.504z"/>
	<path style="fill:#91AAC4;" d="M276.668,273.643l-27.238,76.173c-0.658,1.841,0.098,3.889,1.797,4.864l15.471,8.873
		c1.165,0.669,1.923,1.869,2.022,3.206l1.038,13.942c0.174,2.345-1.685,4.343-4.043,4.343h-59.54c-2.405,0-4.282-2.077-4.031-4.464
		l11.692-111.485L276.668,273.643z"/>
</g>
<path style="fill:#E1E9F2;" d="M511.947,206.779l-3.374,21.454c-11.491,10.571-36.292,14.485-36.292,14.485l-86.782-4.757
	c-0.843-0.046-1.682,0.156-2.412,0.581l-58.437,34.065c-1.495,0.871-2.323,2.552-2.101,4.264l9.163,70.815
	c0.162,1.29,0.937,2.42,2.091,3.032l19.521,10.464c1.207,0.656,1.994,1.86,2.113,3.205l1.476,16.249
	c0.205,2.366-1.671,4.409-4.053,4.409h-54.617c-1.768,0-3.331-1.14-3.869-2.829l-24.016-75.319l-17.337-14.9
	c-1.327-1.141-3.222-1.376-4.779-0.575c-40.998,21.123-64.598,48.458-111.036,43.865l-105.72-10.475L7.61,322.446v-70.33
	c0-62.48,50.77-113.129,113.416-113.129h129.575c6.274-7.367,15.619-12.033,26.074-12.033c10.434,0,19.79,4.668,26.052,12.033h66
	l58.907,8.495c11.534,1.667,22.086,7.431,29.696,16.227l16.858,19.454c9.668,7.635,27.972,15.873,35.215,19.001
	C511.215,202.94,512.249,204.843,511.947,206.779z"/>
<g>
	<path style="fill:#B3D2F2;" d="M31.324,252.117v70.33l0.162,2.366L7.61,322.447v-70.33c0-62.48,50.77-113.129,113.416-113.129
		h23.714C82.092,138.987,31.324,189.638,31.324,252.117z"/>
	<path style="fill:#B3D2F2;" d="M318.084,382.221l-23.086-72.425c-0.605-1.896-1.725-3.589-3.236-4.888l-11.681-10.04
		c-3.399-2.922-8.255-3.425-12.201-1.296c-2.695,1.454-5.316,2.932-7.879,4.419l10.359,8.904l24.011,75.326
		c0.542,1.679,2.1,2.819,3.871,2.819h23.714C320.185,385.039,318.627,383.9,318.084,382.221z"/>
</g>
<path style="fill:#D1E0F0;" d="M508.811,226.695l-0.237,1.538c-11.491,10.571-36.292,14.485-36.292,14.485l-86.782-4.757
	c-0.843-0.046-1.682,0.156-2.412,0.581l-58.437,34.065c-1.495,0.871-2.323,2.552-2.101,4.264l9.163,70.815
	c0.162,1.29,0.937,2.42,2.091,3.032l19.521,10.464c1.207,0.656,1.994,1.86,2.113,3.205l1.476,16.249
	c0.205,2.366-1.671,4.409-4.053,4.409h-54.617c-1.768,0-3.331-1.14-3.869-2.829l-24.016-75.319l-19.531-16.786
	c-42.609,21.281-66.215,49.865-113.621,45.176L7.61,322.446v-56.253c23.724,7.796,99.393,28.551,176.172,5.635
	c92.699-27.658,127.192-51.317,184.321-53.467C417.103,216.511,462.526,231.287,508.811,226.695z"/>
<path style="fill:#E1E9F2;" d="M23.013,195.174C-1.947,237.027,0.037,322.125,0.037,322.125V381c0,2.233,1.815,4.044,4.054,4.044
	H70.36c3.989,0,7.164-3.338,6.952-7.312l-0.33-6.201c-0.183-3.423-1.997-6.553-4.88-8.419l0,0
	c-4.524-2.928-6.171-8.749-3.846-13.604l3.369-7.036c0,0,42.872-61.274,60.803-61.273L23.013,195.174z"/>
<path style="fill:#B3D2F2;" d="M23.751,381v-58.876c0,0-1.61-69.206,16.38-113.492l-17.119-13.459
	C-1.947,237.027,0.037,322.125,0.037,322.125V381c0,2.233,1.815,4.044,4.054,4.044h23.713C25.565,385.044,23.751,383.233,23.751,381
	z"/>
<g>
</g>
<g>
</g>
<g>
</g>
<g>
</g>
<g>
</g>
<g>
</g>
<g>
</g>
<g>
</g>
<g>
</g>
<g>
</g>
<g>
</g>
<g>
</g>
<g>
</g>
<g>
</g>
<g>
</g>
</svg>
