<?xml version="1.0" standalone="no"?>
<!DOCTYPE svg PUBLIC "-//W3C//DTD SVG 20010904//EN"
 "http://www.w3.org/TR/2001/REC-SVG-20010904/DTD/svg10.dtd">
<svg version="1.0" xmlns="http://www.w3.org/2000/svg"
 width="1067.000000pt" height="1067.000000pt" viewBox="0 0 1067.000000 1067.000000"
 preserveAspectRatio="xMidYMid meet">
<metadata>
Created by potrace 1.11, written by Peter Selinger 2001-2013
</metadata>
<g transform="translate(0.000000,1067.000000) scale(0.100000,-0.100000)"
fill="#000000" stroke="none">
<path d="M5594 8010 c-128 -33 -227 -88 -324 -179 l-55 -51 -1440 -1 c-792 0
-1447 -2 -1455 -4 -8 -1 -46 -6 -85 -10 -99 -9 -252 -41 -375 -77 -723 -209
-1320 -771 -1569 -1478 -85 -244 -180 -666 -215 -965 -4 -27 -8 -61 -11 -75
-5 -28 -11 -84 -20 -175 -11 -111 -14 -140 -20 -235 -4 -52 -9 -108 -12 -125
-3 -16 -7 -457 -10 -980 l-5 -950 27 -25 27 -25 721 0 c806 0 772 -3 817 70
21 34 22 45 18 145 -7 135 -24 174 -112 252 -109 98 -119 175 -41 336 41 85
222 349 232 339 8 -8 18 -101 28 -257 3 -41 7 -91 10 -110 2 -19 7 -73 10
-120 3 -47 8 -101 10 -120 2 -19 7 -75 10 -124 3 -49 8 -103 10 -120 2 -17 7
-74 10 -126 6 -103 18 -139 53 -156 35 -17 1388 -16 1423 2 49 24 58 53 56
161 -3 137 -17 160 -183 298 -125 103 -170 153 -180 197 -16 64 -19 107 -12
133 4 16 10 43 13 60 3 16 11 59 18 95 l12 65 85 1 c357 6 621 75 965 250 82
42 246 135 304 172 l23 16 -6 -75 c-4 -41 -9 -85 -11 -99 -2 -14 -7 -56 -10
-95 -4 -38 -8 -83 -10 -100 -2 -16 -7 -59 -10 -95 -3 -36 -8 -81 -10 -100 -2
-19 -7 -57 -10 -85 -10 -86 -15 -138 -20 -205 -3 -36 -7 -76 -10 -90 -2 -14
-7 -52 -10 -85 -8 -92 -16 -168 -20 -192 -2 -12 -7 -58 -11 -102 -6 -79 -6
-80 23 -109 l29 -29 648 0 648 0 30 25 30 26 -6 105 c-12 204 -16 243 -26 261
-9 17 -60 51 -170 112 -150 85 -209 122 -216 136 -14 33 -13 51 2 94 80 222
108 299 119 333 8 22 37 103 65 180 29 77 53 145 54 150 2 6 6 17 9 25 4 8 25
66 47 129 22 63 42 116 44 118 2 3 23 -12 45 -32 46 -42 21 30 326 -930 220
-690 226 -708 255 -722 34 -17 1187 -19 1223 -2 47 21 53 72 32 244 -2 17 -6
69 -10 116 -8 99 -17 114 -95 156 -30 17 -125 67 -210 113 -85 46 -163 89
-172 97 -17 15 -25 55 -53 273 -16 123 -18 145 -30 245 -4 28 -10 77 -15 110
-5 33 -12 83 -15 110 -3 28 -10 82 -15 120 -5 39 -12 90 -15 115 -3 25 -8 60
-11 77 -3 18 -9 68 -14 110 -5 43 -12 96 -15 118 -39 290 -39 295 8 325 23 14
262 154 332 195 22 12 227 132 455 265 228 134 429 248 445 254 31 12 44 12
220 2 118 -7 278 -16 560 -31 55 -3 129 -8 165 -10 36 -2 126 -7 200 -10 74
-3 155 -8 180 -10 25 -3 101 -7 170 -10 69 -4 148 -8 175 -10 173 -12 242 -4
430 50 257 74 497 201 509 270 2 11 7 45 11 75 4 30 9 62 10 70 2 8 8 51 15
95 7 44 13 87 15 95 14 78 15 104 5 134 -10 30 -21 38 -118 82 -167 76 -418
205 -522 269 -97 61 -155 112 -252 225 -293 343 -323 374 -443 454 -123 82
-282 142 -425 161 -25 3 -56 8 -70 10 -14 2 -43 7 -65 10 -22 3 -51 7 -65 10
-14 2 -45 7 -70 10 -25 3 -54 7 -65 9 -27 5 -101 15 -150 21 -22 3 -51 7 -65
10 -14 3 -45 7 -70 10 -25 3 -56 7 -70 10 -14 3 -45 7 -70 10 -43 5 -69 9
-135 20 -16 3 -48 8 -70 10 -22 3 -85 12 -139 20 -80 12 -235 15 -790 15
l-691 1 -57 53 c-72 69 -171 127 -273 162 -107 36 -282 43 -391 14z"/>
</g>
</svg>
